# xmcd
#
# Track frame offsets: 
#        150
#        14200
#        25862
#        40755
#        50350
#        62497
#        79827
#        91662
#        106595
#        120550
#        139440
#        152750
#        166710
#
# Disc length: 2399 seconds
#
# Revision: 0
# Processed by: cddbd v1.5PL3 Copyright (c) Steve Scherf et al.
# Submitted via: ExactAudioCopy v0.90b4
#
DISCID=99095d0d
DTITLE=Charlie Sizemore Band - In My View
DYEAR=1996
DGENRE=Bluegrass
TTITLE0=That's How I Got To Memphis
TTITLE1=Made In The Shade (If The Tree Don't Fall)
TTITLE2=Louisiana Red Dirt Highway
TTITLE3=Let Me Love You One More Time
TTITLE4=I Know the Way To You By Heart
TTITLE5=Bristlecone Pine
TTITLE6=I Want My Rib Back
TTITLE7=In My View
TTITLE8=Ricket's Reel
TTITLE9=Watching My World Go Down
TTITLE10=What You Go Through
TTITLE11=Are You Waiting Just For Me
TTITLE12=Keep Me From Blowing Away
EXTD=
EXTT0=
EXTT1=
EXTT2=
EXTT3=
EXTT4=
EXTT5=
EXTT6=
EXTT7=
EXTT8=
EXTT9=
EXTT10=
EXTT11=
EXTT12=
PLAYORDER=
